<svg width="336" height="94" viewBox="0 0 336 94" fill="none" xmlns="http://www.w3.org/2000/svg">
<path fill-rule="evenodd" clip-rule="evenodd" d="M-4.44104e-08 81.0169C-6.88013e-08 80.7379 8.15301 65.7049 18.118 47.6109C33.049 20.5009 36.787 14.4219 39.368 13.0579C41.849 11.7469 44.731 11.4679 53.235 11.7139L63.97 12.0249L46.454 44.0249C36.724 61.8019 27.612 77.2469 25.954 78.7749C23.058 81.4419 22.622 81.5249 11.484 81.5249C5.16801 81.5249 -1.9932e-08 81.2969 -4.44104e-08 81.0169ZM56.497 71.7749C63.716 58.6039 68.901 55.7289 76.775 60.5289C81.909 63.6599 83.436 69.8469 80.483 75.5579C77.992 80.3749 74.455 81.5249 62.126 81.5249L51.154 81.5249L56.497 71.7749Z" fill="url(#paint0_linear_26_2)"/>
<path d="M120.446 68.0789H113.465L129.15 24.4939H136.747L152.432 68.0789H145.452L133.13 32.4107H132.789L120.446 68.0789ZM121.616 51.0109H144.26V56.5442H121.616V51.0109ZM164.579 24.4939V68.0789H158.215V24.4939H164.579ZM173.139 80.3371V35.3902H179.353V40.6893H179.885C180.254 40.0083 180.786 39.2209 181.482 38.327C182.177 37.4332 183.142 36.6529 184.376 35.9861C185.61 35.305 187.242 34.9645 189.271 34.9645C191.91 34.9645 194.265 35.6314 196.336 36.965C198.408 38.2987 200.032 40.2211 201.21 42.7324C202.402 45.2436 202.997 48.2656 202.997 51.7984C202.997 55.3311 202.409 58.3602 201.231 60.8856C200.053 63.3969 198.436 65.3335 196.379 66.6955C194.322 68.0434 191.974 68.7173 189.335 68.7173C187.348 68.7173 185.724 68.3839 184.461 67.7171C183.213 67.0502 182.234 66.2699 181.524 65.3761C180.815 64.4822 180.269 63.6877 179.885 62.9925H179.502V80.3371H173.139ZM179.375 51.7345C179.375 54.0329 179.708 56.0476 180.375 57.7785C181.042 59.5094 182.007 60.8644 183.269 61.8433C184.532 62.8081 186.078 63.2905 187.909 63.2905C189.81 63.2905 191.399 62.7868 192.676 61.7795C193.953 60.758 194.917 59.3746 195.57 57.6295C196.237 55.8844 196.57 53.9194 196.57 51.7345C196.57 49.578 196.244 47.6413 195.591 45.9246C194.953 44.2079 193.988 42.8529 192.697 41.8598C191.42 40.8667 189.824 40.3701 187.909 40.3701C186.064 40.3701 184.504 40.8454 183.227 41.796C181.964 42.7465 181.006 44.0731 180.354 45.7756C179.701 47.4782 179.375 49.4645 179.375 51.7345ZM216.49 48.6699V68.0789H210.127V24.4939H216.405V40.7106H216.809C217.575 38.9513 218.746 37.5538 220.321 36.5181C221.896 35.4824 223.953 34.9645 226.492 34.9645C228.734 34.9645 230.692 35.4256 232.366 36.3478C234.055 37.27 235.36 38.6463 236.282 40.4765C237.218 42.2925 237.687 44.5626 237.687 47.2866V68.0789H231.323V48.0528C231.323 45.655 230.706 43.7964 229.472 42.477C228.238 41.1433 226.521 40.4765 224.322 40.4765C222.818 40.4765 221.47 40.7957 220.278 41.4342C219.101 42.0726 218.171 43.009 217.49 44.2434C216.823 45.4635 216.49 46.939 216.49 48.6699ZM260.266 68.7386C257.046 68.7386 254.272 68.0505 251.945 66.6743C249.633 65.2839 247.845 63.333 246.582 60.8218C245.334 58.2964 244.71 55.3382 244.71 51.9473C244.71 48.599 245.334 45.6479 246.582 43.0941C247.845 40.5403 249.604 38.5469 251.86 37.114C254.13 35.681 256.783 34.9645 259.82 34.9645C261.664 34.9645 263.452 35.2696 265.183 35.8796C266.913 36.4897 268.467 37.4474 269.843 38.7527C271.219 40.0579 272.305 41.7534 273.099 43.839C273.894 45.9104 274.291 48.4288 274.291 51.394V53.6499H248.306V48.8828H268.056C268.056 47.2086 267.715 45.726 267.034 44.4349C266.353 43.1296 265.395 42.101 264.161 41.349C262.941 40.5971 261.508 40.2211 259.862 40.2211C258.074 40.2211 256.514 40.6609 255.18 41.5406C253.861 42.406 252.839 43.5411 252.116 44.9456C251.406 46.3361 251.052 47.8471 251.052 49.4787V53.2029C251.052 55.3879 251.435 57.2465 252.201 58.7788C252.981 60.311 254.066 61.4815 255.457 62.2902C256.847 63.0848 258.472 63.482 260.33 63.482C261.536 63.482 262.636 63.3118 263.629 62.9712C264.622 62.6166 265.481 62.0916 266.204 61.3964C266.928 60.7012 267.481 59.8428 267.864 58.8213L273.887 59.9067C273.404 61.6802 272.539 63.2337 271.29 64.5674C270.056 65.8868 268.503 66.9155 266.63 67.6532C264.771 68.3768 262.65 68.7386 260.266 68.7386ZM281.351 68.0789V35.3902H287.502V40.5829H287.842C288.438 38.8236 289.488 37.4403 290.992 36.433C292.51 35.4114 294.227 34.9007 296.142 34.9007C296.539 34.9007 297.008 34.9149 297.547 34.9432C298.1 34.9716 298.533 35.0071 298.845 35.0497V41.1362C298.59 41.0653 298.135 40.9873 297.483 40.9021C296.83 40.8028 296.178 40.7532 295.525 40.7532C294.021 40.7532 292.68 41.0724 291.503 41.7108C290.339 42.3351 289.417 43.2076 288.736 44.3285C288.055 45.4351 287.715 46.6978 287.715 48.1166V68.0789H281.351ZM309.369 80.3371C308.418 80.3371 307.553 80.2591 306.772 80.103C305.992 79.9611 305.41 79.8051 305.027 79.6348L306.56 74.4208C307.723 74.7329 308.759 74.8677 309.667 74.8252C310.575 74.7826 311.376 74.4421 312.071 73.8036C312.781 73.1652 313.405 72.1224 313.944 70.6752L314.732 68.5045L302.771 35.3902H309.582L317.86 60.758H318.201L326.479 35.3902H333.311L319.839 72.4416C319.215 74.1441 318.421 75.5842 317.456 76.7618C316.491 77.9536 315.342 78.8474 314.008 79.4433C312.674 80.0392 311.128 80.3371 309.369 80.3371Z" fill="white"/>
<defs>
<linearGradient id="paint0_linear_26_2" x1="40.9879" y1="11.6331" x2="40.9879" y2="81.5249" gradientUnits="userSpaceOnUse">
<stop stop-color="#7C1CE2"/>
<stop offset="1" stop-color="#2D13BF"/>
</linearGradient>
</defs>
</svg>
